<svg width="500pt" height="500pt" viewBox="0 0 500 500" xmlns="http://www.w3.org/2000/svg"><path fill="#030405" d="M120.3 17.26c2.83-1.69 6.24-1.19 9.37-1.21 10.51 19.37 21.21 38.62 31.63 58.03 29.86-1.27 59.78-2.54 89.68-1.31 5.61.29 11.24.21 16.86.38.42.37 1.26 1.11 1.69 1.48-.64 2.92-1.31 5.84-1.71 8.81-33.74-1.64-67.54-.83-101.26.72 1.93 3.52 3.86 7.05 5.81 10.57 23.54.73 47.09.83 70.63 1.26 8.27.41 16.52-.53 24.77-.91 2.76-.14 5.53-.22 8.29-.37 20.52-1.67 41.05-3.31 61.49-5.79 2.94-.35 5.88-.66 8.84-.73.46-.02 1.37-.05 1.83-.07 1.31.93 2.43 2.08 3.39 3.38-.57 1.77-1.21 3.53-1.96 5.24-1.3 1.95-2.73 3.8-4.12 5.68-2.22 3.01-4.46 6.01-6.61 9.06-1.87 2.61-3.6 5.31-5.42 7.95-4.64 6.25-9.2 12.55-13.79 18.85-1.99 2.77-3.92 5.6-5.85 8.42-1.51 2.18-3.04 4.36-4.54 6.55-21.26 28.52-41.32 57.92-62.22 86.71-2.73 3.35-6.22 6.2-7.88 10.31-3.19 6.47-2.21 13.81-2.4 20.77-.3 51.33-.93 102.66-1.37 153.99-.06 7.26 2.57 14.6 7.75 19.77 6.47 6.45 15.32 9.73 24.02 11.91 9.68 2.29 19.29 4.84 28.9 7.37 3.16.79 6.03 2.36 8.8 4.03.08 2.98.22 5.96.38 8.94-4.44 3.51-9.68 6.03-15.3 6.92-13.56 2.28-27.16 4.36-40.86 5.55-23.73 1.63-47.66 1.94-71.31-.89-10.18-1.46-20.57-3.02-29.87-7.64-6.58-1.8-6.7-13.38.03-15 14.04-4.35 28.3-7.98 42.24-12.66 6.26-2.57 12.63-5.69 17.21-10.8 3.28-3.74 5.1-8.61 5.52-13.52.51-56.02-.91-112.03-1.01-168.05.11-5.15-1.35-10.34-4.57-14.41-36.71-49.42-72.16-99.77-108.23-149.66-1.61-2.11-3.33-4.94-1.95-7.62 2.4-4.16 7.15-6.21 11.68-7.12 11.06-2.27 22.18-4.3 33.34-6.1-9.4-16.97-18.51-34.1-27.94-51.06 1.45-2.92 2.92-6.22 6.02-7.73m2.45 71.64c9.34 2.88 19.18 3.94 28.92 4.1-1.35-2.46-2.69-4.92-3.97-7.42-8.32 1.08-16.66 2.07-24.95 3.32m-10.19 7.55c1.81 3.13 4.03 5.98 6.11 8.93 25.54 35.76 51.06 71.54 76.58 107.31 3.49 4.81 7.85 9.17 13.29 11.7 15.25 7.19 35.17 1.83 44.77-12.04 27.46-38.33 55.12-76.53 82.31-115.05-52.38 6.73-105.34 9.42-158.11 6.91 7.43 13.22 14.38 26.7 21.26 40.22-6.86-.59-13.71-1.37-20.55-2.15-7.15-13.1-13.97-26.39-21.26-39.41-8.67-.86-17.36-1.57-25.97-2.86-6.2-.92-12.24-2.61-18.43-3.56Z"/><g fill="#fcc249"><path d="M296.82 32.76c21.38-15.39 52.03-16.99 74.51-2.98 12.82 6.69 23.08 17.99 28.53 31.38 2.21 6.18 4.63 12.39 5.43 18.96 1.42 6.53.74 13.26.78 19.88-3.1 17.38-11.97 34.02-26.05 44.94-19.11 14.94-46.45 19.64-68.9 9.8-.45-.37-1.35-1.12-1.8-1.49 1.5-2.19 3.03-4.37 4.54-6.55 8.34 1.61 16.46 5.23 25.13 4.33 15.96-1.44 32.3-7.79 42.66-20.46 8.4-10.33 15.13-22.95 15.06-36.58-.18-8.21.06-16.74-3.22-24.44-3.98-9.35-8.84-18.75-16.89-25.25-10.65-9.18-24.46-14.71-38.58-14.69-9.6.13-19.73 1.05-28.08 6.25-11.12 6.07-20.97 14.95-26.71 26.37-5.23 9.96-7.17 21.32-7.17 32.48-2.76.15-5.53.23-8.29.37 0-3.88-.15-7.77.05-11.64.4-2.97 1.07-5.89 1.71-8.81-.43-.37-1.27-1.11-1.69-1.48.93-1.16 2-2.23 2.68-3.57 4.98-14.42 14.1-27.58 26.3-36.82Z"/><path d="M303.65 52.11c7.85-7.98 18.6-12.48 29.69-13.37-.61 14.36 1.87 28.83-.43 43.11-10.02-9.64-20.04-19.32-29.26-29.74ZM339.8 42.9c-.2-1.55 1.01-2.63 1.81-3.77 9.89 1.45 20.19 4.51 27.42 11.78-3.6 5.92-8.51 10.88-13.29 15.84-4.97 4.88-9.94 9.89-15.92 13.55-.07-12.47-.07-24.94-.02-37.4ZM298.36 57.07c1.11.24 1.9 1.17 2.78 1.84 8.35 7.28 15.82 15.47 23.53 23.4.76.87 1.7 1.66 2.17 2.74-.61 2.02-3 2.44-4.83 2.41-9.33.13-18.67.05-28.01.05-2.48.06-4.84-.74-7.16-1.51-.22-10.61 3.51-21.72 11.52-28.93ZM369.66 60.65c1.93-2 5.75-4.06 7.9-1.24 5.77 7.34 9.4 16.45 10.19 25.77-2.52 1.01-5.08 2.14-7.83 2.24-10.56.41-21.18-.59-31.7.7-.46.02-1.37.05-1.83.07-.05-1.66-.13-3.32-.2-4.98 7.9-7.43 15.59-15.1 23.47-22.56ZM351.61 91.5c1.17.52 2.39.98 3.69 1.11 10.9.7 21.96-.88 32.76 1.27-1.54 10.75-5.26 21.54-13.07 29.37-5.63-4.06-10.22-9.32-15.13-14.17-3.66-3.89-8.06-7.3-10.21-12.34.75-1.71 1.39-3.47 1.96-5.24ZM338.92 111.48c2.15-3.05 4.39-6.05 6.61-9.06 5.61 5.75 10.97 11.76 16.72 17.38 2.8 2.73 5.01 5.98 7.18 9.22-7.31 6.47-16.6 11.12-26.48 11.41-2.46-1.44-3.05-4.87-3.41-7.53-.33-7.13.47-14.32-.62-21.42ZM333.5 119.43c1.18 6.88.28 13.86-.83 20.69-4.42.59-8.86-.1-12.96-1.84 4.59-6.3 9.15-12.6 13.79-18.85ZM251.97 144.27c13.97-1.14 27.88-3.13 41.56-6.16-2.48 6.86-8.9 10.94-12.26 17.21-4.18 7.02-9.3 13.4-13.91 20.12-8.53 11.7-16.49 23.88-26.16 34.71-5.59 6.39-14.86 7.42-22.81 6.29-5.64-.87-10.32-4.64-13.73-9.04-8.48-10.94-16.2-22.44-24.46-33.54-8.57-11.26-15.86-23.43-24.51-34.63 7.56.61 15.02 2.01 22.53 3.05 6.84.78 13.69 1.56 20.55 2.15 17.73.16 35.48.5 53.2-.16Z"/></g><g fill="#fff"><path d="M309.94 35.86c8.35-5.2 18.48-6.12 28.08-6.25 14.12-.02 27.93 5.51 38.58 14.69 8.05 6.5 12.91 15.9 16.89 25.25 3.28 7.7 3.04 16.23 3.22 24.44.07 13.63-6.66 26.25-15.06 36.58-10.36 12.67-26.7 19.02-42.66 20.46-8.67.9-16.79-2.72-25.13-4.33 1.93-2.82 3.86-5.65 5.85-8.42 4.1 1.74 8.54 2.43 12.96 1.84 1.11-6.83 2.01-13.81.83-20.69 1.82-2.64 3.55-5.34 5.42-7.95 1.09 7.1.29 14.29.62 21.42.36 2.66.95 6.09 3.41 7.53 9.88-.29 19.17-4.94 26.48-11.41-2.17-3.24-4.38-6.49-7.18-9.22-5.75-5.62-11.11-11.63-16.72-17.38 1.39-1.88 2.82-3.73 4.12-5.68 2.15 5.04 6.55 8.45 10.21 12.34 4.91 4.85 9.5 10.11 15.13 14.17 7.81-7.83 11.53-18.62 13.07-29.37-10.8-2.15-21.86-.57-32.76-1.27-1.3-.13-2.52-.59-3.69-1.11-.96-1.3-2.08-2.45-3.39-3.38 10.52-1.29 21.14-.29 31.7-.7 2.75-.1 5.31-1.23 7.83-2.24-.79-9.32-4.42-18.43-10.19-25.77-2.15-2.82-5.97-.76-7.9 1.24-7.88 7.46-15.57 15.13-23.47 22.56.07 1.66.15 3.32.2 4.98-2.96.07-5.9.38-8.84.73-20.44 2.48-40.97 4.12-61.49 5.79 0-11.16 1.94-22.52 7.17-32.48 5.74-11.42 15.59-20.3 26.71-26.37m-6.29 16.25c9.22 10.42 19.24 20.1 29.26 29.74 2.3-14.28-.18-28.75.43-43.11-11.09.89-21.84 5.39-29.69 13.37m36.15-9.21c-.05 12.46-.05 24.93.02 37.4 5.98-3.66 10.95-8.67 15.92-13.55 4.78-4.96 9.69-9.92 13.29-15.84-7.23-7.27-17.53-10.33-27.42-11.78-.8 1.14-2.01 2.22-1.81 3.77m-41.44 14.17c-8.01 7.21-11.74 18.32-11.52 28.93 2.32.77 4.68 1.57 7.16 1.51 9.34 0 18.68.08 28.01-.05 1.83.03 4.22-.39 4.83-2.41-.47-1.08-1.41-1.87-2.17-2.74-7.71-7.93-15.18-16.12-23.53-23.4-.88-.67-1.67-1.6-2.78-1.84ZM166.56 84.16c33.72-1.55 67.52-2.36 101.26-.72-.2 3.87-.05 7.76-.05 11.64-8.25.38-16.5 1.32-24.77.91-23.54-.43-47.09-.53-70.63-1.26-1.95-3.52-3.88-7.05-5.81-10.57ZM122.75 88.9c8.29-1.25 16.63-2.24 24.95-3.32 1.28 2.5 2.62 4.96 3.97 7.42-9.74-.16-19.58-1.22-28.92-4.1Z"/><path d="M112.56 96.45c6.19.95 12.23 2.64 18.43 3.56 8.61 1.29 17.3 2 25.97 2.86 7.29 13.02 14.11 26.31 21.26 39.41-7.51-1.04-14.97-2.44-22.53-3.05 8.65 11.2 15.94 23.37 24.51 34.63 8.26 11.1 15.98 22.6 24.46 33.54 3.41 4.4 8.09 8.17 13.73 9.04 7.95 1.13 17.22.1 22.81-6.29 9.67-10.83 17.63-23.01 26.16-34.71 4.61-6.72 9.73-13.1 13.91-20.12 3.36-6.27 9.78-10.35 12.26-17.21-13.68 3.03-27.59 5.02-41.56 6.16-17.72.66-35.47.32-53.2.16-6.88-13.52-13.83-27-21.26-40.22 52.77 2.51 105.73-.18 158.11-6.91-27.19 38.52-54.85 76.72-82.31 115.05-9.6 13.87-29.52 19.23-44.77 12.04-5.44-2.53-9.8-6.89-13.29-11.7-25.52-35.77-51.04-71.55-76.58-107.31-2.08-2.95-4.3-5.8-6.11-8.93Z"/></g></svg>